<?xml version="1.0" encoding="UTF-8"?>
<svg id="Layer_2" data-name="Layer 2" xmlns="http://www.w3.org/2000/svg" viewBox="0 0 567.08 420.93">
  <defs>
    <style>
      .cls-1 {
        fill: none;
        stroke: #fff;
        stroke-linecap: round;
        stroke-miterlimit: 10;
        stroke-width: 5px;
      }
    </style>
  </defs>
  <g id="Layer_1-2" data-name="Layer 1">
    <path class="cls-1" d="M564.58,418.43c-.37-3.13-1.5-7.23-3.2-12.6-7.79-24.64-25.65-40.15-47.54-51.87-21.19-11.34-44.48-16.55-67.44-22.61-26.96-7.12-54.21-13.14-80.77-21.68-5.17-1.66-11.96-2.04-13.29-9.11-2.17-11.47-4.98-23.03,3.92-33.44,3.92-4.59,6.05-10.4,7.81-16.19,3.42-11.22,6.64-22.49,10.08-33.7.9-2.94,1.19-6.78,4.92-7.57,10.76-2.28,12.7-11.09,15.4-19.64,3.39-10.71,4.45-21.8,4.66-32.84.16-8.3.97-17.98-8.18-22.8-4.37-2.3-4.76-4.82-4.54-8.96.72-13.26,2.22-26.56.33-39.83-2.47-17.42-4.72-35.01-23.26-44.01-1.28-.62-2.42-2.12-3.02-3.48-7.15-16.17-21.05-23.99-36.68-29.43-21.51-7.48-43.69-7.41-65.73-3.77-22.32,3.69-41.94,12.5-52.84,34.32-.64,1.29-2.14,2.38-3.49,3.04-11.01,5.38-15.8,15.22-18.62,26.25-4.27,16.73-5.52,33.68-3.3,50.92.6,4.64,3.26,10.56-2.68,13.78-7.91,4.29-9.49,11.44-9.72,19.28-.46,15.7,2.14,30.94,7.67,45.65,1.59,4.24,3.57,8.62,8.23,9.85,6.64,1.75,8.37,6.58,10.16,12.3,5.65,18.04,9.15,36.72,20.71,52.75,8.56,11.86-.97,34.52-15,38.19-28.51,7.46-57.17,14.34-85.67,21.86-28.52,7.53-57.21,14.84-80.86,34.01-16.39,13.29-27.02,29.92-30.12,51.15,0,.07-.01.12-.02.19"/>
  </g>
</svg>